<?xml version="1.0" encoding="UTF-8" standalone="no"?> <svg width="64" height="64" viewBox="0 0 64 64" fill="none" xmlns="http://www.w3.org/2000/svg">
<path d="M51 35V55C50.9984 55.5299 50.7872 56.0377 50.4125 56.4125C50.0377 56.7872 49.5299 56.9984 49 57H23C22.4701 56.9984 21.9623 56.7872 21.5875 56.4125C21.2128 56.0377 21.0016 55.5299 21 55V35L24 32H48L51 35Z" fill="#D1D3D4"/>
<path d="M51 5V29L48 32H24L21 29V5C21.0016 4.47005 21.2128 3.96227 21.5875 3.58753C21.9623 3.2128 22.4701 3.00158 23 3H49C49.5299 3.00158 50.0377 3.2128 50.4125 3.58753C50.7872 3.96227 50.9984 4.47005 51 5Z" fill="#E6E7E8"/>
<path d="M21 46.39V55C21.0016 55.53 21.2128 56.0377 21.5875 56.4125C21.9623 56.7872 22.4701 56.9984 23 57H30V61.99L14 62V41.19C13.9985 39.7463 14.3125 38.3197 14.92 37.01L19.46 27.16C19.6008 26.8563 19.8155 26.5928 20.0846 26.3936C20.3537 26.1944 20.6684 26.066 21 26.02V29L24 32L21 35V46.39Z" fill="#FFC477"/>
<path d="M31.9 38.71C31.9 39.2364 31.7621 39.7535 31.5 40.21L27 48L29.14 51.56C29.7006 52.4934 29.9978 53.5612 30 54.65V57H23C22.4701 56.9984 21.9623 56.7872 21.5875 56.4125C21.2128 56.0377 21.0016 55.53 21 55V46.39L26.3 37.21C26.6298 36.6371 27.1395 36.1892 27.7501 35.9358C28.3606 35.6824 29.0377 35.6378 29.6762 35.8088C30.3147 35.9799 30.8789 36.357 31.281 36.8816C31.6831 37.4062 31.9007 38.049 31.9 38.71Z" fill="#FFC477"/>
<path d="M37.895 7.55298L36.105 8.44698L37.381 11H33.617L32.895 9.55398L31.105 10.446L31.881 12L31.105 13.554L32.895 14.446L33.617 13H37.381L36.105 15.553L37.895 16.447L39.617 13H42V11H39.617L37.895 7.55298Z" fill="black"/>
<path d="M52 29V5C51.9976 4.20508 51.6808 3.4434 51.1187 2.8813C50.5566 2.31921 49.7949 2.00237 49 2H23C22.2051 2.00237 21.4434 2.31921 20.8813 2.8813C20.3192 3.4434 20.0024 4.20508 20 5V25.3C19.3643 25.5973 18.8517 26.1064 18.55 26.74L14.01 36.59C13.3477 38.0333 13.0033 39.602 13 41.19V62H15V41.19C15.0034 39.8916 15.2865 38.6092 15.83 37.43L20 28.38V29C20.002 29.2651 20.1058 29.5193 20.29 29.71L22.59 32L20.29 34.29C20.1058 34.4807 20.002 34.7349 20 35V46.12L19.44 47.1L21.17 48.1L27.17 37.71C27.3 37.4815 27.4738 37.2808 27.6814 37.1195C27.889 36.9582 28.1264 36.8395 28.38 36.77C28.8935 36.6386 29.4379 36.7103 29.9 36.97C30.1283 37.1015 30.3284 37.2768 30.4888 37.4859C30.6492 37.695 30.7667 37.9337 30.8345 38.1883C30.9023 38.4429 30.9192 38.7084 30.8841 38.9695C30.849 39.2307 30.7626 39.4823 30.63 39.71L26.13 47.5C26.0431 47.6563 25.9983 47.8325 26 48.0113C26.0018 48.1902 26.05 48.3655 26.14 48.52L28.28 52.08C28.749 52.8553 28.998 53.7438 29 54.65V61.99H31V58H49C49.7949 57.9976 50.5566 57.6808 51.1187 57.1187C51.6808 56.5566 51.9976 55.7949 52 55V35C51.998 34.7349 51.8942 34.4807 51.71 34.29L49.41 32L51.71 29.71C51.8942 29.5193 51.998 29.2651 52 29ZM50 35.41V55C50 55.2652 49.8946 55.5196 49.7071 55.7071C49.5196 55.8946 49.2652 56 49 56H31V54.65C30.9977 53.3817 30.6521 52.1378 30 51.05L28.16 47.99L31 43.07V46H33V41H32.2L32.37 40.71C32.7677 40.0247 32.9529 39.2367 32.9021 38.446C32.8513 37.6554 32.5669 36.8975 32.0848 36.2687C31.6028 35.6399 30.9448 35.1684 30.1945 34.9141C29.4441 34.6597 28.6351 34.6339 27.87 34.84C27.3607 34.9739 26.8834 35.2083 26.466 35.5295C26.0487 35.8506 25.6999 36.252 25.44 36.71L22 42.66V35.41L24.41 33H47.59L50 35.41ZM50 28.59L47.59 31H24.41L22 28.59V5C22 4.73478 22.1054 4.48043 22.2929 4.29289C22.4804 4.10536 22.7348 4 23 4H49C49.2652 4 49.5196 4.10536 49.7071 4.29289C49.8946 4.48043 50 4.73478 50 5V28.59Z" fill="black"/>
<path d="M45 37H43V52H45V37Z" fill="black"/>
<path d="M41 37H39V46H41V37Z" fill="black"/>
<path d="M37 37H35V52H37V37Z" fill="black"/>
<path d="M45 19H43V27H45V19Z" fill="black"/>
<path d="M41 19H39V27H41V19Z" fill="black"/>
<path d="M37 19H35V27H37V19Z" fill="black"/>
<path d="M33 19H31V27H33V19Z" fill="black"/>
<path d="M29 19H27V27H29V19Z" fill="black"/>
</svg>
