<svg xmlns="http://www.w3.org/2000/svg" shape-rendering="geometricPrecision" text-rendering="geometricPrecision" image-rendering="optimizeQuality" fill-rule="evenodd" clip-rule="evenodd" viewBox="0 0 467 511.79"><path d="M78.44 410.04c-1.35-15.14 5.91-30.67 18.38-48.49l-85.56-43.83c-5.29-1.75-5.46-4.89-2.83-8.81l15.84-16.18c2.94-2.21 6.16-3.3 9.79-2.65l101.38 7.82 44.64-58.1-.8 30.19c-.6 22.98.22 44.36 2.38 64.23l-1.14 1.27 2.41 9.15c3.89 28.62 10.69 53.96 20.13 76.26l3.4 12.9c1.3 3.45.8 6.81-.85 10.12l-13.06 18.48c-3.38 3.3-6.51 3.69-9.18-1.2l-58.51-76.28c-15.34 15.54-29.36 25.48-44.55 26.83-1.41.11-1.75-.34-1.87-1.71zm217.81-51.83c8.52 4.91 14.05 8.99 20.66 16.26 17.12-27.55 35.7-42.82 59.86-64.49l2.36-.91h26.44c-35.45 39.37-62.94 71.84-87.55 119.31-12.81-27.39-24.23-46.3-49.78-63.84l28.01-6.33zm170.56-92.32c3.68 140.23-46 215.3-129.87 245.9l-.03-.02-.03.02c-83.87-30.6-133.56-105.67-129.87-245.9 45.26 2.39 94.99-10.1 129.87-40.22 39.32 30.28 80.48 42.83 129.93 40.22zm-23.83 18.86c3 114.51-37.56 175.8-106.05 200.79l-.02-.01-.03.01c-68.48-24.99-109.05-86.28-106.05-200.79 36.97 1.95 77.57-8.24 106.05-32.84 32.11 24.73 65.72 34.98 106.1 32.84zm-259.3-49.65 26.78-34.85L4.32 86.46c-5.17-2.44-5.87-5.69-1.18-9.92l25.99-24.91L288.8 99.82l59.06-66.38C370.99 9.45 394.51-2.47 413.62.43c10.56 1.6 14.48 4.36 18.52 13.75 7.91 18.44.64 44.8-19.68 73.1l-64.69 61.71 25.11 65.81c-6.24-3.44-12.3-7.08-18.11-10.77l-20.3-12.87-18.97 14.74c-16.31 12.68-32.71 20.83-49.16 25.52-16.79 4.8-33.92 6.2-51.26 5.3l-31.4-1.62z"/></svg>