<?xml version="1.0" encoding="utf-8"?><svg version="1.1" id="Layer_1" xmlns="http://www.w3.org/2000/svg" xmlns:xlink="http://www.w3.org/1999/xlink" x="0px" y="0px" viewBox="0 0 122.88 45.88" style="enable-background:new 0 0 122.88 45.88" xml:space="preserve"><style type="text/css"><![CDATA[
	.st0{fill-rule:evenodd;clip-rule:evenodd;fill:#0E8635;}
	.st1{fill-rule:evenodd;clip-rule:evenodd;fill:#E97208;}
	.st2{fill:#66686C;}
]]></style><g><polygon class="st0" points="114.56,0.06 122.88,16.61 105.38,33.17 107.46,25.66 117.03,16.61 112.48,7.56 114.56,0.06"/><polygon class="st1" points="108.71,0.06 117.03,16.61 99.52,33.17 108.71,0.06"/><path class="st2" d="M1.28,39.45h0.97l-0.9,3.75c-0.13,0.56-0.11,0.98,0.08,1.26c0.18,0.28,0.53,0.42,1.03,0.42 c0.5,0,0.9-0.14,1.22-0.42c0.32-0.28,0.54-0.7,0.68-1.26l0.9-3.75h0.98L5.31,43.3c-0.2,0.84-0.56,1.46-1.07,1.88 c-0.51,0.42-1.18,0.62-2.01,0.62c-0.83,0-1.4-0.21-1.71-0.62c-0.31-0.41-0.36-1.04-0.16-1.88L1.28,39.45L1.28,39.45z M94.04,33.03 h-6.58L96.61,0h6.58L94.04,33.03L94.04,33.03z M39.34,30.96c-0.36,1.3-1.56,2.22-2.91,2.22H2.5c-0.93,0-1.62-0.32-2.07-0.94 c-0.45-0.63-0.55-1.41-0.28-2.34L8.42,0.09l6.58,0L7.62,26.72h26.33l7.39-26.63l6.58,0L39.34,30.96L39.34,30.96L39.34,30.96z M90.63,1.04c-0.45-0.63-1.16-0.94-2.11-0.94l-36.17,0l-1.78,6.48l32.9,0l-1.92,6.91H55.22v-0.02h-6.58l-5.46,19.72l6.58,0 l3.66-13.23h29.58c0.93,0,1.8-0.31,2.61-0.94c0.81-0.63,1.35-1.41,1.6-2.34l3.66-13.23C91.17,2.46,91.08,1.67,90.63,1.04 L90.63,1.04L90.63,1.04z M117.8,45.63l1.48-6.18h3.36l-0.2,0.85h-2.38l-0.37,1.55h2.38l-0.21,0.88h-2.38l-0.48,2h2.38l-0.21,0.9 H117.8L117.8,45.63z M117.7,40.95c-0.22-0.24-0.47-0.42-0.75-0.54c-0.28-0.12-0.59-0.18-0.93-0.18c-0.66,0-1.25,0.22-1.76,0.65 c-0.52,0.43-0.86,1-1.02,1.69c-0.16,0.67-0.09,1.22,0.21,1.65c0.3,0.43,0.75,0.65,1.37,0.65c0.36,0,0.71-0.07,1.06-0.2 c0.35-0.13,0.71-0.33,1.07-0.59l-0.27,1.14c-0.31,0.19-0.63,0.34-0.96,0.43s-0.68,0.14-1.04,0.14c-0.46,0-0.87-0.08-1.22-0.23 c-0.35-0.15-0.64-0.38-0.87-0.68c-0.22-0.29-0.37-0.64-0.43-1.04c-0.06-0.4-0.04-0.83,0.07-1.28s0.29-0.88,0.54-1.28 c0.25-0.4,0.57-0.75,0.94-1.05c0.37-0.3,0.77-0.53,1.19-0.69c0.42-0.16,0.86-0.23,1.31-0.23c0.35,0,0.68,0.05,0.97,0.16 s0.57,0.27,0.82,0.48L117.7,40.95L117.7,40.95z M110.29,45.63l-0.3-1.59h-2.39l-1.08,1.59h-1.03l4.46-6.43l1.38,6.43H110.29 L110.29,45.63z M108.16,43.2h1.68l-0.28-1.41c-0.01-0.09-0.03-0.19-0.04-0.31s-0.02-0.25-0.02-0.39c-0.07,0.13-0.13,0.26-0.2,0.38 c-0.06,0.12-0.13,0.22-0.19,0.32L108.16,43.2L108.16,43.2z M102.19,45.63l1.48-6.18h3.36l-0.2,0.85h-2.38l-0.37,1.54h2.38 l-0.21,0.88h-2.38l-0.7,2.91H102.19L102.19,45.63z M99.04,42.87l-0.66,2.77h-0.92l1.48-6.18h1.37c0.4,0,0.7,0.03,0.91,0.08 c0.21,0.05,0.38,0.14,0.5,0.27c0.15,0.15,0.25,0.34,0.29,0.58c0.04,0.24,0.03,0.5-0.03,0.78c-0.12,0.5-0.33,0.88-0.63,1.16 c-0.3,0.28-0.69,0.45-1.15,0.5l1.4,2.81h-1.11l-1.34-2.77H99.04L99.04,42.87z M99.29,42.08h0.18c0.52,0,0.88-0.06,1.08-0.19 c0.2-0.12,0.34-0.34,0.41-0.66c0.08-0.34,0.05-0.58-0.1-0.72c-0.15-0.14-0.47-0.21-0.96-0.21h-0.18L99.29,42.08L99.29,42.08z M92.98,45.63l1.48-6.18h3.36l-0.2,0.85h-2.38l-0.37,1.55h2.38l-0.21,0.88h-2.38l-0.48,2h2.38l-0.22,0.9H92.98L92.98,45.63z M91.91,40.3l-1.28,5.33h-0.98l1.28-5.33h-1.6l0.2-0.85h4.17l-0.2,0.85H91.91L91.91,40.3z M81.92,45.63l1.54-6.43l2.92,3.78 c0.08,0.11,0.16,0.22,0.23,0.34c0.08,0.12,0.16,0.26,0.24,0.41l1.03-4.29h0.91l-1.54,6.42l-2.99-3.85 c-0.08-0.1-0.15-0.21-0.22-0.33c-0.07-0.12-0.13-0.24-0.19-0.36l-1.03,4.3H81.92L81.92,45.63z M79.53,45.63l1.48-6.18h0.98 l-1.48,6.18H79.53L79.53,45.63z M72.29,44.39l0.87-0.37c0.01,0.28,0.09,0.49,0.26,0.63c0.16,0.14,0.4,0.22,0.71,0.22 c0.29,0,0.54-0.08,0.75-0.25s0.35-0.39,0.42-0.67c0.09-0.36-0.13-0.69-0.65-0.97c-0.07-0.04-0.13-0.07-0.17-0.09 c-0.58-0.33-0.96-0.63-1.11-0.9c-0.16-0.27-0.19-0.6-0.09-0.99c0.12-0.5,0.38-0.91,0.79-1.22c0.41-0.31,0.88-0.47,1.42-0.47 c0.44,0,0.79,0.09,1.05,0.26c0.26,0.18,0.4,0.43,0.44,0.76l-0.86,0.41c-0.08-0.19-0.17-0.34-0.3-0.43 c-0.12-0.09-0.28-0.13-0.46-0.13c-0.26,0-0.49,0.07-0.68,0.21c-0.19,0.14-0.31,0.33-0.37,0.57c-0.09,0.37,0.17,0.72,0.77,1.04 c0.05,0.03,0.08,0.04,0.11,0.06c0.53,0.28,0.87,0.56,1.03,0.83c0.16,0.27,0.19,0.6,0.09,1.01c-0.14,0.59-0.43,1.05-0.87,1.4 c-0.44,0.34-0.97,0.52-1.58,0.52c-0.51,0-0.91-0.12-1.17-0.36C72.42,45.19,72.29,44.85,72.29,44.39L72.29,44.39z M71.27,40.3 L70,45.63h-0.98l1.28-5.33h-1.6l0.21-0.85h4.17l-0.2,0.85H71.27L71.27,40.3z M61.28,45.63l1.54-6.43l2.92,3.78 c0.08,0.11,0.16,0.22,0.23,0.34c0.08,0.12,0.16,0.26,0.24,0.41l1.03-4.29h0.91l-1.54,6.42l-2.99-3.85 c-0.08-0.1-0.15-0.21-0.22-0.33c-0.07-0.12-0.13-0.24-0.19-0.36l-1.03,4.3H61.28L61.28,45.63z M56.79,45.63l1.48-6.18h3.36 l-0.2,0.85h-2.38l-0.37,1.55h2.38l-0.21,0.88h-2.38l-0.48,2h2.38l-0.22,0.9H56.79L56.79,45.63z M55.16,42.58 c0-0.05,0.01-0.18,0.04-0.4c0.02-0.18,0.04-0.33,0.05-0.45c-0.06,0.14-0.13,0.28-0.21,0.42c-0.08,0.14-0.17,0.28-0.27,0.43 l-2.37,3.29l-0.77-3.36c-0.03-0.14-0.06-0.27-0.07-0.4c-0.02-0.13-0.03-0.26-0.03-0.38c-0.03,0.13-0.08,0.26-0.13,0.41 c-0.05,0.14-0.11,0.29-0.19,0.45l-1.38,3.04h-0.9l2.97-6.45l0.84,3.9c0.01,0.06,0.03,0.17,0.05,0.31c0.02,0.14,0.05,0.32,0.08,0.53 c0.1-0.18,0.24-0.4,0.43-0.68c0.05-0.07,0.09-0.13,0.11-0.17l2.67-3.9l-0.09,6.45H55.1L55.16,42.58L55.16,42.58z M45.82,45.63 l0.68-2.83l-1.23-3.35h1.03l0.76,2.1c0.02,0.05,0.04,0.13,0.06,0.21c0.02,0.09,0.05,0.18,0.07,0.28c0.06-0.1,0.13-0.19,0.19-0.28 s0.13-0.17,0.19-0.24l1.79-2.07h0.98l-2.88,3.35l-0.68,2.83H45.82L45.82,45.63z M43.38,45.63l-0.3-1.59h-2.39l-1.08,1.59h-1.03 l4.46-6.43l1.38,6.43H43.38L43.38,45.63z M41.25,43.2h1.68l-0.28-1.41c-0.01-0.09-0.03-0.19-0.04-0.31 c-0.01-0.12-0.02-0.25-0.02-0.39c-0.06,0.13-0.13,0.26-0.2,0.38c-0.06,0.12-0.13,0.22-0.19,0.32L41.25,43.2L41.25,43.2z M36.96,42.86l-0.66,2.78h-0.92l1.48-6.18h1.48c0.44,0,0.76,0.02,0.95,0.07c0.19,0.05,0.36,0.13,0.48,0.24 c0.15,0.14,0.26,0.34,0.3,0.58c0.05,0.24,0.04,0.51-0.03,0.8c-0.07,0.29-0.19,0.56-0.35,0.81c-0.17,0.25-0.36,0.44-0.58,0.58 c-0.18,0.11-0.38,0.19-0.6,0.24s-0.55,0.07-0.99,0.07H36.96L36.96,42.86z M37.21,42.03h0.25c0.54,0,0.92-0.06,1.13-0.18 c0.21-0.12,0.35-0.33,0.43-0.64c0.08-0.33,0.04-0.56-0.12-0.7s-0.5-0.2-1.02-0.2h-0.25L37.21,42.03L37.21,42.03z M26.59,45.63 l1.48-6.18h1.32c0.86,0,1.45,0.04,1.78,0.13c0.33,0.09,0.6,0.24,0.81,0.45c0.28,0.27,0.46,0.62,0.54,1.05 c0.08,0.43,0.05,0.92-0.08,1.47c-0.13,0.55-0.34,1.04-0.62,1.46s-0.63,0.77-1.04,1.05c-0.31,0.21-0.65,0.36-1.01,0.45 c-0.36,0.09-0.89,0.13-1.6,0.13H26.59L26.59,45.63z M27.79,44.72h0.82c0.45,0,0.8-0.03,1.04-0.09c0.24-0.06,0.46-0.17,0.67-0.31 c0.28-0.2,0.51-0.45,0.69-0.75c0.19-0.3,0.33-0.64,0.42-1.04c0.09-0.39,0.12-0.74,0.08-1.04c-0.04-0.3-0.15-0.55-0.33-0.75 c-0.14-0.15-0.31-0.25-0.54-0.31c-0.22-0.06-0.59-0.09-1.09-0.09h-0.71L27.79,44.72L27.79,44.72z M22.1,45.63l1.48-6.18h3.36 l-0.2,0.85h-2.38l-0.37,1.55h2.38l-0.21,0.88h-2.38l-0.48,2h2.38l-0.22,0.9H22.1L22.1,45.63z M19.71,45.63l1.48-6.18h0.98 l-1.48,6.18H19.71L19.71,45.63z M15.27,45.63l1.48-6.18h3.36l-0.2,0.85h-2.38l-0.37,1.54h2.38l-0.21,0.88h-2.38l-0.7,2.91H15.27 L15.27,45.63z M12.89,45.63l1.48-6.18h0.98l-1.48,6.18H12.89L12.89,45.63z M6.1,45.63l1.54-6.43l2.92,3.78 c0.08,0.11,0.16,0.22,0.23,0.34c0.08,0.12,0.16,0.26,0.24,0.41l1.03-4.29h0.91l-1.54,6.42l-2.98-3.85 c-0.08-0.1-0.15-0.21-0.22-0.33c-0.07-0.12-0.13-0.24-0.19-0.36L7,45.63H6.1L6.1,45.63z"/></g></svg>