<svg id="Layer_1" data-name="Layer 1" xmlns="http://www.w3.org/2000/svg" viewBox="0 0 122.88 103.34"><defs><style>.cls-1{fill-rule:evenodd;}.cls-2{fill:#ff4141;}</style></defs><title>why</title><path class="cls-1" d="M11.56,0h99.76a11.59,11.59,0,0,1,11.56,11.56V64.65a11.59,11.59,0,0,1-11.56,11.56l-24.64,0a19.6,19.6,0,0,0,.68-2.26h0A24.15,24.15,0,0,0,87.84,71h21.74a7.69,7.69,0,0,0,7.66-7.66V13.29a7.69,7.69,0,0,0-7.66-7.66H12.42c-4.21,0-6.79,3.45-6.79,7.66V63.35A7.69,7.69,0,0,0,13.29,71h2.37a1.94,1.94,0,0,1,1.81,2.07L17.3,83,29.89,71.58A1.94,1.94,0,0,1,31.26,71h4.41l0,.11a22.74,22.74,0,0,0,2.13,4.95H33.26L15.71,91.3A1.94,1.94,0,0,1,13,91.08a1.91,1.91,0,0,1-.46-1.39L11.72,76.2h-.16A11.58,11.58,0,0,1,0,64.65V11.56A11.59,11.59,0,0,1,11.56,0ZM31.27,45.92a6.13,6.13,0,0,1-2.22-.25,1.39,1.39,0,0,1-.75-.84L20.5,23.29c0-.44.84-1,2.53-1.55a15.29,15.29,0,0,1,5.1-.88c2.21,0,3.39.69,3.53,2.08l1.2,11.19h.49l1-11.19q.18-2.09,4.77-2.08a4.14,4.14,0,0,1,2.36.47,1.76,1.76,0,0,1,.67,1.26l1.17,11.54h.49l.92-11.19c.07-.68.87-1.2,2.42-1.55a20.07,20.07,0,0,1,4.58-.53,5.16,5.16,0,0,1,3.11.67,1.88,1.88,0,0,1,.83,1.41L48.11,44.83q-.39,1.1-5.23,1.09a4.9,4.9,0,0,1-1.94-.25,1.28,1.28,0,0,1-.67-.84l-1.84-6.15H38l-1.87,6.15c-.21.73-1.83,1.09-4.87,1.09Zm37.85-.85V35.26a25,25,0,0,0-.21-3.85c-.15-.8-.49-1.2-1-1.2s-.7.32-.7.95V45.07c0,.26-.69.47-2.05.62a38.56,38.56,0,0,1-4.2.23,11.21,11.21,0,0,1-2.72-.19c-.38-.13-.56-.35-.56-.66V20.61c0-.49.68-1,2-1.48A12.44,12.44,0,0,1,64,18.39c1.58,0,2.58.29,3,.88a1,1,0,0,1,.21.6v5.19l-.39,2.43h.25a4.18,4.18,0,0,1,1.55-1.3,9,9,0,0,1,4.31-1.06c2.23,0,3.75.71,4.54,2.14S78.65,31,78.65,34.2V45.07c0,.26-.69.47-2.07.62a38.56,38.56,0,0,1-4.2.23,11.11,11.11,0,0,1-2.7-.19c-.37-.13-.56-.35-.56-.66Zm24.29-1.45V41.54h-.28c-.12.12-.3.27-.53.46a6.63,6.63,0,0,1-1.66.74A8.63,8.63,0,0,1,88,43.2a7.33,7.33,0,0,1-2.83-.51,4.8,4.8,0,0,1-1.92-1.38A6.06,6.06,0,0,1,82.19,39a24.18,24.18,0,0,1-.67-6.49V27.64c0-.5.69-1,2.08-1.47A13.32,13.32,0,0,1,88,25.45c2,0,3.07.53,3.07,1.59v4.44c0,4.71.37,7.06,1.13,7.06.44,0,.67-.32.67-.95v-10q0-.75,2.22-1.47a15.37,15.37,0,0,1,4.77-.72c1.69,0,2.54.46,2.54,1.37v16.7q0,7.88-10.66,7.87c-3.74,0-6.29-.36-7.63-1.09-.59-.33-.88-.67-.88-1a10.15,10.15,0,0,1,.71-2.84c.47-1.33.9-2,1.3-2a7.2,7.2,0,0,1,1,.21,17.33,17.33,0,0,0,4.36.7A4.45,4.45,0,0,0,92.86,45a1.53,1.53,0,0,0,.55-1.35Z"/><path class="cls-2" d="M47.18,73c-1.25,0-2.33-1.48-3.25-4.46A29.11,29.11,0,0,1,42.56,60c0-.63.69-1.33,2.07-2.11a23.43,23.43,0,0,1,6.3-2.08,44.14,44.14,0,0,1,9.19-.9q19.23,0,19.23,13.4A13.16,13.16,0,0,1,77.78,75,10.47,10.47,0,0,1,74,79a17.92,17.92,0,0,1-8.24,2.54l-1.55.07A13.6,13.6,0,0,0,64.54,84a14.22,14.22,0,0,1,.33,2.81c0,.72-1.21,1.26-3.65,1.64a41.73,41.73,0,0,1-6.33.57c-2.73,0-4.41-.67-5.06-2s-1-4.17-1-8.51q0-1.55,5.76-2.28a10.52,10.52,0,0,0,3.92-1.41,3.27,3.27,0,0,0,1.78-2.94c0-1.26-1-1.88-3-1.88A15,15,0,0,0,51,71.5,19.78,19.78,0,0,1,47.18,73ZM57.7,91.27a16.41,16.41,0,0,1,7,1.17q2.42,1.19,2.42,4.86,0,6-9.39,6t-9.38-6q0-6,9.38-6Z"/></svg>