<svg xmlns="http://www.w3.org/2000/svg" viewBox="0 0 512 512"><defs><style>.cls-1{fill:#a99bd4;}.cls-2{fill:#32314b;}.cls-3{fill:#27273d;}.cls-4{fill:#41c0e3;}.cls-5{fill:#7cc8fb;}.cls-6{fill:#db1b1b;}.cls-7{fill:#404060;}.cls-8{fill:#fff;}.cls-9{fill:#b0d46c;}</style></defs><title>Public Transport</title><g id="BULINE"><circle class="cls-1" cx="256" cy="256" r="256"/></g><g id="Icons"><path class="cls-2" d="M377.2,43.52V466.7A10.29,10.29,0,0,1,366.91,477H142.51c-1.07,0-10.29-7.45-10.29-10.29V43.51a10.29,10.29,0,0,1,10.29-10.28h224.4A10.29,10.29,0,0,1,377.2,43.52Z"/><path class="cls-3" d="M195.48,477h-53a10.3,10.3,0,0,1-10.3-10.3V43.51a10.29,10.29,0,0,1,10.3-10.28h53a10.29,10.29,0,0,0-10.3,10.28V466.7A10.3,10.3,0,0,0,195.48,477Z"/><circle class="cls-3" cx="254.71" cy="445.94" r="22.07"/><rect class="cls-3" x="132.21" y="119.37" width="0.01" height="110.45"/><path class="cls-3" d="M377.2,119.37h8a7.11,7.11,0,0,1,7.11,7.11V141.6a7.11,7.11,0,0,1-7.11,7.11h-8a0,0,0,0,1,0,0V119.37A0,0,0,0,1,377.2,119.37Z"/><path class="cls-3" d="M392.28,207.6v15.11a7.11,7.11,0,0,1-7.11,7.11h-8V200.49h8A7.11,7.11,0,0,1,392.28,207.6Z"/><rect class="cls-4" x="132.21" y="77.43" width="52.97" height="337.24"/><path class="cls-5" d="M377.2,77.43V414.67h-245V77.43h73.49v5.94A12.43,12.43,0,0,0,218.13,95.8h72.42A12.43,12.43,0,0,0,303,83.37V77.43Z"/><rect class="cls-4" x="132.21" y="77.43" width="52.97" height="337.24"/><circle class="cls-3" cx="254.34" cy="56.76" r="12.82"/><circle class="cls-6" cx="254.34" cy="56.76" r="5.23"/><circle class="cls-7" cx="363.11" cy="56.76" r="10.67"/><circle class="cls-7" cx="340.53" cy="56.76" r="8.8"/><path class="cls-8" d="M346.05,238V221.83a3.36,3.36,0,0,0-1.52-2.81c-9.11-5.91-56.29-36.46-66.83-41.35a3.38,3.38,0,0,1-2-2.9l-2-46.43c-.32-8.7-8.9-15.6-19.36-15.6h0c-10.47,0-19,6.9-19.37,15.6l-2,46.43a3.37,3.37,0,0,1-2,2.9c-10.53,4.89-57.71,35.44-66.82,41.35a3.37,3.37,0,0,0-1.53,2.81V238a3.36,3.36,0,0,0,4.18,3.25l62.29-15.86a3.35,3.35,0,0,1,4.16,2.89l4.82,44.59a3.35,3.35,0,0,1-1.34,3.06l-21,15.45a3.36,3.36,0,0,0-1.37,2.7v14.31a3.35,3.35,0,0,0,4.7,3.06l34-14.93a3.34,3.34,0,0,1,2.7,0l33.95,14.93a3.34,3.34,0,0,0,4.7-3.06V294.1a3.35,3.35,0,0,0-1.36-2.7L272,276a3.35,3.35,0,0,1-1.35-3.06l4.82-44.59a3.36,3.36,0,0,1,4.16-2.89l62.29,15.86A3.36,3.36,0,0,0,346.05,238Z"/><rect class="cls-9" x="163.23" y="341.52" width="182.21" height="51.59" rx="13"/><path class="cls-8" d="M190.11,383.62V351h16.56q5.16,0,7.52,2.61a8.58,8.58,0,0,1,2.37,5.95,7.48,7.48,0,0,1-1.38,4.4,7,7,0,0,1-4.09,2.71q6.33,1.53,6.33,7.6a10.27,10.27,0,0,1-2.24,6.49q-2.24,2.85-9.54,2.85Zm9.22-20.11H204a3,3,0,0,0,2.46-.89,2.94,2.94,0,0,0,.72-1.88q0-2.73-3.35-2.73h-4.47Zm0,12.85h4.88a3.49,3.49,0,0,0,2.66-.9,2.83,2.83,0,0,0,.85-2,3.09,3.09,0,0,0-.83-2.07,3.88,3.88,0,0,0-3-.95h-4.54Z"/><path class="cls-8" d="M235.64,384.12a14.78,14.78,0,0,1-11.21-4.56q-4.34-4.56-4.34-12.21a17.69,17.69,0,0,1,4.15-12.07q4.14-4.77,11.5-4.77a14.68,14.68,0,0,1,11.1,4.49q4.29,4.5,4.28,12,0,7.77-4.32,12.45A14.5,14.5,0,0,1,235.64,384.12Zm0-7.4a3.78,3.78,0,0,0,3.64-2.21c.74-1.48,1.11-4.17,1.11-8.09q0-8.51-4.56-8.5-4.92,0-4.92,9.7Q230.87,376.71,235.6,376.72Z"/><path class="cls-8" d="M269.45,384.12a14.78,14.78,0,0,1-11.22-4.56q-4.34-4.56-4.33-12.21A17.73,17.73,0,0,1,258,355.28q4.14-4.77,11.5-4.77a14.68,14.68,0,0,1,11.1,4.49q4.29,4.5,4.29,12,0,7.77-4.33,12.45A14.49,14.49,0,0,1,269.45,384.12Zm-.05-7.4a3.78,3.78,0,0,0,3.64-2.21c.74-1.48,1.11-4.17,1.11-8.09q0-8.51-4.56-8.5-4.92,0-4.92,9.7Q264.67,376.71,269.4,376.72Z"/><path class="cls-8" d="M318.56,383.62H307.61L302,371.3l-3.39,4.8v7.52h-9.43V351h9.43V364.5l9-13.49h9L308.35,363Z"/></g></svg>